<mxfile host="app.diagrams.net" modified="2024-06-25T22:21:42.703Z" agent="Mozilla/5.0 (Windows NT 10.0; Win64; x64) AppleWebKit/537.36 (KHTML, like Gecko) Chrome/126.0.0.0 Safari/537.36" etag="YPo5ZZiyzgzP1HS_edh0" version="24.6.2" type="device">
  <diagram id="yPxyJZ8AM_hMuL3Unpa9" name="gitflow">
    <mxGraphModel dx="1562" dy="818" grid="1" gridSize="10" guides="1" tooltips="1" connect="1" arrows="1" fold="1" page="1" pageScale="1" pageWidth="850" pageHeight="1100" math="0" shadow="0">
      <root>
        <mxCell id="0" />
        <mxCell id="1" parent="0" />
        <mxCell id="7" value="Master" style="text;html=1;strokeColor=#6c8ebf;fillColor=#dae8fc;align=center;verticalAlign=middle;whiteSpace=wrap;rounded=0;" parent="1" vertex="1">
          <mxGeometry y="40" width="90" height="20" as="geometry" />
        </mxCell>
        <mxCell id="20" value="Hotfix" style="text;html=1;strokeColor=#b85450;fillColor=#f8cecc;align=center;verticalAlign=middle;whiteSpace=wrap;rounded=0;dashed=1;" parent="1" vertex="1">
          <mxGeometry y="100" width="90" height="20" as="geometry" />
        </mxCell>
        <mxCell id="42" value="Release" style="text;html=1;strokeColor=#d79b00;fillColor=#ffe6cc;align=center;verticalAlign=middle;whiteSpace=wrap;rounded=0;fontSize=12;" parent="1" vertex="1">
          <mxGeometry y="150" width="90" height="20" as="geometry" />
        </mxCell>
        <mxCell id="85" value="Feature team 1" style="text;html=1;strokeColor=#9673a6;fillColor=#e1d5e7;align=center;verticalAlign=middle;whiteSpace=wrap;rounded=0;dashed=1;" parent="1" vertex="1">
          <mxGeometry y="338" width="90" height="20" as="geometry" />
        </mxCell>
        <mxCell id="86" value="Feature team 2" style="text;html=1;strokeColor=#9673a6;fillColor=#e1d5e7;align=center;verticalAlign=middle;whiteSpace=wrap;rounded=0;" parent="1" vertex="1">
          <mxGeometry y="398" width="90" height="20" as="geometry" />
        </mxCell>
        <mxCell id="102" value="Develop" style="text;html=1;strokeColor=#666666;fillColor=#f5f5f5;align=center;verticalAlign=middle;whiteSpace=wrap;rounded=0;fontColor=#333333;" parent="1" vertex="1">
          <mxGeometry y="278" width="90" height="20" as="geometry" />
        </mxCell>
        <mxCell id="Yo8ojN2ZZVK_a9DPH7lN-179" value="" style="endArrow=none;html=1;rounded=0;exitX=1;exitY=0.5;exitDx=0;exitDy=0;fillColor=#dae8fc;strokeColor=#6c8ebf;" parent="1" source="xTJkF1dvW0mvQIqaZgI2-121" edge="1">
          <mxGeometry width="50" height="50" relative="1" as="geometry">
            <mxPoint x="590" y="280" as="sourcePoint" />
            <mxPoint x="1240" y="45" as="targetPoint" />
          </mxGeometry>
        </mxCell>
        <mxCell id="Yo8ojN2ZZVK_a9DPH7lN-181" value="" style="endArrow=none;html=1;rounded=0;exitX=1;exitY=0.25;exitDx=0;exitDy=0;fillColor=#dae8fc;strokeColor=#6c8ebf;" parent="1" source="7" target="Yo8ojN2ZZVK_a9DPH7lN-180" edge="1">
          <mxGeometry width="50" height="50" relative="1" as="geometry">
            <mxPoint x="90" y="45" as="sourcePoint" />
            <mxPoint x="830" y="50" as="targetPoint" />
          </mxGeometry>
        </mxCell>
        <mxCell id="Yo8ojN2ZZVK_a9DPH7lN-186" style="edgeStyle=orthogonalEdgeStyle;rounded=0;orthogonalLoop=1;jettySize=auto;html=1;exitX=0.5;exitY=1;exitDx=0;exitDy=0;entryX=0;entryY=0.5;entryDx=0;entryDy=0;endArrow=classic;endFill=1;fillColor=#dae8fc;strokeColor=#6c8ebf;curved=1;" parent="1" source="Yo8ojN2ZZVK_a9DPH7lN-180" target="Yo8ojN2ZZVK_a9DPH7lN-184" edge="1">
          <mxGeometry relative="1" as="geometry">
            <Array as="points">
              <mxPoint x="165" y="105" />
            </Array>
          </mxGeometry>
        </mxCell>
        <mxCell id="Yo8ojN2ZZVK_a9DPH7lN-194" style="edgeStyle=orthogonalEdgeStyle;rounded=0;orthogonalLoop=1;jettySize=auto;html=1;exitX=0.5;exitY=1;exitDx=0;exitDy=0;entryX=0;entryY=0.5;entryDx=0;entryDy=0;curved=1;endArrow=classic;endFill=1;fillColor=#dae8fc;strokeColor=#6c8ebf;" parent="1" source="Yo8ojN2ZZVK_a9DPH7lN-180" target="Yo8ojN2ZZVK_a9DPH7lN-192" edge="1">
          <mxGeometry relative="1" as="geometry" />
        </mxCell>
        <mxCell id="Yo8ojN2ZZVK_a9DPH7lN-180" value="" style="ellipse;whiteSpace=wrap;html=1;aspect=fixed;fillColor=#dae8fc;strokeColor=#6c8ebf;" parent="1" vertex="1">
          <mxGeometry x="150" y="30" width="30" height="30" as="geometry" />
        </mxCell>
        <mxCell id="Yo8ojN2ZZVK_a9DPH7lN-188" style="edgeStyle=orthogonalEdgeStyle;rounded=0;orthogonalLoop=1;jettySize=auto;html=1;exitX=0.5;exitY=1;exitDx=0;exitDy=0;entryX=1;entryY=0.5;entryDx=0;entryDy=0;endArrow=none;endFill=0;curved=1;fillColor=#f8cecc;strokeColor=#b85450;startArrow=classic;startFill=1;" parent="1" source="Yo8ojN2ZZVK_a9DPH7lN-182" target="Yo8ojN2ZZVK_a9DPH7lN-184" edge="1">
          <mxGeometry relative="1" as="geometry">
            <Array as="points">
              <mxPoint x="290" y="60" />
              <mxPoint x="290" y="105" />
            </Array>
          </mxGeometry>
        </mxCell>
        <mxCell id="Yo8ojN2ZZVK_a9DPH7lN-197" style="edgeStyle=orthogonalEdgeStyle;rounded=0;orthogonalLoop=1;jettySize=auto;html=1;exitX=1;exitY=0.5;exitDx=0;exitDy=0;entryX=0;entryY=0.5;entryDx=0;entryDy=0;curved=1;fillColor=#f8cecc;strokeColor=#b85450;endArrow=classic;endFill=1;startArrow=none;startFill=0;" parent="1" source="Yo8ojN2ZZVK_a9DPH7lN-184" target="Yo8ojN2ZZVK_a9DPH7lN-195" edge="1">
          <mxGeometry relative="1" as="geometry" />
        </mxCell>
        <mxCell id="Yo8ojN2ZZVK_a9DPH7lN-184" value="" style="ellipse;whiteSpace=wrap;html=1;aspect=fixed;fillColor=#f8cecc;strokeColor=#b85450;dashed=1;" parent="1" vertex="1">
          <mxGeometry x="210" y="90" width="30" height="30" as="geometry" />
        </mxCell>
        <mxCell id="Yo8ojN2ZZVK_a9DPH7lN-189" value="" style="endArrow=none;html=1;rounded=0;exitX=1;exitY=0.5;exitDx=0;exitDy=0;fillColor=#dae8fc;strokeColor=#6c8ebf;" parent="1" source="Yo8ojN2ZZVK_a9DPH7lN-180" target="Yo8ojN2ZZVK_a9DPH7lN-182" edge="1">
          <mxGeometry width="50" height="50" relative="1" as="geometry">
            <mxPoint x="180" y="45" as="sourcePoint" />
            <mxPoint x="830" y="45" as="targetPoint" />
          </mxGeometry>
        </mxCell>
        <mxCell id="Yo8ojN2ZZVK_a9DPH7lN-182" value="" style="ellipse;whiteSpace=wrap;html=1;aspect=fixed;fillColor=#dae8fc;strokeColor=#6c8ebf;" parent="1" vertex="1">
          <mxGeometry x="280" y="30" width="30" height="30" as="geometry" />
        </mxCell>
        <mxCell id="Yo8ojN2ZZVK_a9DPH7lN-190" value="" style="endArrow=none;html=1;rounded=0;exitX=1;exitY=0.5;exitDx=0;exitDy=0;" parent="1" source="xTJkF1dvW0mvQIqaZgI2-118" edge="1">
          <mxGeometry width="50" height="50" relative="1" as="geometry">
            <mxPoint x="590" y="358" as="sourcePoint" />
            <mxPoint x="1240" y="288" as="targetPoint" />
          </mxGeometry>
        </mxCell>
        <mxCell id="Yo8ojN2ZZVK_a9DPH7lN-193" value="" style="endArrow=none;html=1;rounded=0;exitX=1;exitY=0.5;exitDx=0;exitDy=0;" parent="1" source="102" target="Yo8ojN2ZZVK_a9DPH7lN-192" edge="1">
          <mxGeometry width="50" height="50" relative="1" as="geometry">
            <mxPoint x="90" y="288" as="sourcePoint" />
            <mxPoint x="850" y="288" as="targetPoint" />
          </mxGeometry>
        </mxCell>
        <mxCell id="Yo8ojN2ZZVK_a9DPH7lN-201" style="edgeStyle=orthogonalEdgeStyle;rounded=0;orthogonalLoop=1;jettySize=auto;html=1;exitX=1;exitY=0.5;exitDx=0;exitDy=0;entryX=0;entryY=0.5;entryDx=0;entryDy=0;curved=1;endArrow=classic;endFill=1;fillColor=#e1d5e7;strokeColor=#9673a6;" parent="1" source="Yo8ojN2ZZVK_a9DPH7lN-198" target="Yo8ojN2ZZVK_a9DPH7lN-200" edge="1">
          <mxGeometry relative="1" as="geometry" />
        </mxCell>
        <mxCell id="Yo8ojN2ZZVK_a9DPH7lN-210" style="edgeStyle=orthogonalEdgeStyle;rounded=0;orthogonalLoop=1;jettySize=auto;html=1;exitX=0.5;exitY=1;exitDx=0;exitDy=0;entryX=0;entryY=0.5;entryDx=0;entryDy=0;curved=1;endArrow=classic;endFill=1;fillColor=#e1d5e7;strokeColor=#9673a6;" parent="1" source="Yo8ojN2ZZVK_a9DPH7lN-192" target="Yo8ojN2ZZVK_a9DPH7lN-209" edge="1">
          <mxGeometry relative="1" as="geometry" />
        </mxCell>
        <mxCell id="Yo8ojN2ZZVK_a9DPH7lN-192" value="" style="ellipse;whiteSpace=wrap;html=1;aspect=fixed;" parent="1" vertex="1">
          <mxGeometry x="190" y="273" width="30" height="30" as="geometry" />
        </mxCell>
        <mxCell id="Yo8ojN2ZZVK_a9DPH7lN-196" value="" style="endArrow=none;html=1;rounded=0;exitX=1;exitY=0.5;exitDx=0;exitDy=0;" parent="1" source="Yo8ojN2ZZVK_a9DPH7lN-198" target="Yo8ojN2ZZVK_a9DPH7lN-195" edge="1">
          <mxGeometry width="50" height="50" relative="1" as="geometry">
            <mxPoint x="220" y="288" as="sourcePoint" />
            <mxPoint x="850" y="288" as="targetPoint" />
          </mxGeometry>
        </mxCell>
        <mxCell id="Yo8ojN2ZZVK_a9DPH7lN-195" value="" style="ellipse;whiteSpace=wrap;html=1;aspect=fixed;" parent="1" vertex="1">
          <mxGeometry x="330" y="273" width="30" height="30" as="geometry" />
        </mxCell>
        <mxCell id="Yo8ojN2ZZVK_a9DPH7lN-199" value="" style="endArrow=none;html=1;rounded=0;exitX=1;exitY=0.5;exitDx=0;exitDy=0;" parent="1" source="Yo8ojN2ZZVK_a9DPH7lN-192" target="Yo8ojN2ZZVK_a9DPH7lN-198" edge="1">
          <mxGeometry width="50" height="50" relative="1" as="geometry">
            <mxPoint x="220" y="288" as="sourcePoint" />
            <mxPoint x="330" y="288" as="targetPoint" />
          </mxGeometry>
        </mxCell>
        <mxCell id="Yo8ojN2ZZVK_a9DPH7lN-198" value="" style="ellipse;whiteSpace=wrap;html=1;aspect=fixed;" parent="1" vertex="1">
          <mxGeometry x="240" y="273" width="30" height="30" as="geometry" />
        </mxCell>
        <mxCell id="Yo8ojN2ZZVK_a9DPH7lN-204" style="edgeStyle=orthogonalEdgeStyle;rounded=0;orthogonalLoop=1;jettySize=auto;html=1;exitX=1;exitY=0.5;exitDx=0;exitDy=0;entryX=0;entryY=0.5;entryDx=0;entryDy=0;fillColor=#e1d5e7;strokeColor=#9673a6;endArrow=none;endFill=0;dashed=1;" parent="1" source="Yo8ojN2ZZVK_a9DPH7lN-200" target="Yo8ojN2ZZVK_a9DPH7lN-202" edge="1">
          <mxGeometry relative="1" as="geometry" />
        </mxCell>
        <mxCell id="Yo8ojN2ZZVK_a9DPH7lN-200" value="" style="ellipse;whiteSpace=wrap;html=1;aspect=fixed;fillColor=#e1d5e7;strokeColor=#9673a6;dashed=1;" parent="1" vertex="1">
          <mxGeometry x="330" y="333" width="30" height="30" as="geometry" />
        </mxCell>
        <mxCell id="Yo8ojN2ZZVK_a9DPH7lN-205" style="edgeStyle=orthogonalEdgeStyle;rounded=0;orthogonalLoop=1;jettySize=auto;html=1;exitX=1;exitY=0.5;exitDx=0;exitDy=0;entryX=0;entryY=0.5;entryDx=0;entryDy=0;fillColor=#e1d5e7;strokeColor=#9673a6;endArrow=none;endFill=0;dashed=1;" parent="1" source="Yo8ojN2ZZVK_a9DPH7lN-202" target="Yo8ojN2ZZVK_a9DPH7lN-203" edge="1">
          <mxGeometry relative="1" as="geometry" />
        </mxCell>
        <mxCell id="Yo8ojN2ZZVK_a9DPH7lN-202" value="" style="ellipse;whiteSpace=wrap;html=1;aspect=fixed;fillColor=#e1d5e7;strokeColor=#9673a6;dashed=1;" parent="1" vertex="1">
          <mxGeometry x="380" y="333" width="30" height="30" as="geometry" />
        </mxCell>
        <mxCell id="Yo8ojN2ZZVK_a9DPH7lN-208" style="edgeStyle=orthogonalEdgeStyle;rounded=0;orthogonalLoop=1;jettySize=auto;html=1;exitX=1;exitY=0.5;exitDx=0;exitDy=0;entryX=0;entryY=0.5;entryDx=0;entryDy=0;fillColor=#e1d5e7;strokeColor=#9673a6;curved=1;endArrow=classic;endFill=1;" parent="1" source="Yo8ojN2ZZVK_a9DPH7lN-203" target="Yo8ojN2ZZVK_a9DPH7lN-206" edge="1">
          <mxGeometry relative="1" as="geometry">
            <Array as="points">
              <mxPoint x="520" y="348" />
            </Array>
          </mxGeometry>
        </mxCell>
        <mxCell id="Yo8ojN2ZZVK_a9DPH7lN-203" value="" style="ellipse;whiteSpace=wrap;html=1;aspect=fixed;fillColor=#e1d5e7;strokeColor=#9673a6;dashed=1;" parent="1" vertex="1">
          <mxGeometry x="440" y="333" width="30" height="30" as="geometry" />
        </mxCell>
        <mxCell id="Yo8ojN2ZZVK_a9DPH7lN-207" value="" style="endArrow=none;html=1;rounded=0;exitX=1;exitY=0.5;exitDx=0;exitDy=0;" parent="1" source="Yo8ojN2ZZVK_a9DPH7lN-195" target="Yo8ojN2ZZVK_a9DPH7lN-206" edge="1">
          <mxGeometry width="50" height="50" relative="1" as="geometry">
            <mxPoint x="360" y="288" as="sourcePoint" />
            <mxPoint x="850" y="288" as="targetPoint" />
          </mxGeometry>
        </mxCell>
        <mxCell id="Yo8ojN2ZZVK_a9DPH7lN-218" style="edgeStyle=orthogonalEdgeStyle;rounded=0;orthogonalLoop=1;jettySize=auto;html=1;exitX=1;exitY=0.5;exitDx=0;exitDy=0;entryX=0;entryY=0.5;entryDx=0;entryDy=0;curved=1;endArrow=classic;endFill=1;" parent="1" source="Yo8ojN2ZZVK_a9DPH7lN-206" target="Yo8ojN2ZZVK_a9DPH7lN-217" edge="1">
          <mxGeometry relative="1" as="geometry" />
        </mxCell>
        <mxCell id="Yo8ojN2ZZVK_a9DPH7lN-206" value="" style="ellipse;whiteSpace=wrap;html=1;aspect=fixed;" parent="1" vertex="1">
          <mxGeometry x="520" y="273" width="30" height="30" as="geometry" />
        </mxCell>
        <mxCell id="Yo8ojN2ZZVK_a9DPH7lN-213" style="edgeStyle=orthogonalEdgeStyle;rounded=0;orthogonalLoop=1;jettySize=auto;html=1;exitX=1;exitY=0.5;exitDx=0;exitDy=0;entryX=0;entryY=0.5;entryDx=0;entryDy=0;endArrow=none;endFill=0;fillColor=#e1d5e7;strokeColor=#9673a6;dashed=1;" parent="1" source="Yo8ojN2ZZVK_a9DPH7lN-209" target="Yo8ojN2ZZVK_a9DPH7lN-211" edge="1">
          <mxGeometry relative="1" as="geometry" />
        </mxCell>
        <mxCell id="Yo8ojN2ZZVK_a9DPH7lN-209" value="" style="ellipse;whiteSpace=wrap;html=1;aspect=fixed;fillColor=#e1d5e7;strokeColor=#9673a6;dashed=1;" parent="1" vertex="1">
          <mxGeometry x="230" y="393" width="30" height="30" as="geometry" />
        </mxCell>
        <mxCell id="Yo8ojN2ZZVK_a9DPH7lN-214" style="edgeStyle=orthogonalEdgeStyle;rounded=0;orthogonalLoop=1;jettySize=auto;html=1;exitX=1;exitY=0.5;exitDx=0;exitDy=0;entryX=0;entryY=0.5;entryDx=0;entryDy=0;endArrow=none;endFill=0;fillColor=#e1d5e7;strokeColor=#9673a6;dashed=1;" parent="1" source="Yo8ojN2ZZVK_a9DPH7lN-211" target="Yo8ojN2ZZVK_a9DPH7lN-212" edge="1">
          <mxGeometry relative="1" as="geometry" />
        </mxCell>
        <mxCell id="Yo8ojN2ZZVK_a9DPH7lN-211" value="" style="ellipse;whiteSpace=wrap;html=1;aspect=fixed;fillColor=#e1d5e7;strokeColor=#9673a6;dashed=1;" parent="1" vertex="1">
          <mxGeometry x="290" y="393" width="30" height="30" as="geometry" />
        </mxCell>
        <mxCell id="Yo8ojN2ZZVK_a9DPH7lN-216" style="edgeStyle=orthogonalEdgeStyle;rounded=0;orthogonalLoop=1;jettySize=auto;html=1;exitX=1;exitY=0.5;exitDx=0;exitDy=0;entryX=0;entryY=0.5;entryDx=0;entryDy=0;endArrow=none;endFill=0;fillColor=#e1d5e7;strokeColor=#9673a6;dashed=1;" parent="1" source="Yo8ojN2ZZVK_a9DPH7lN-212" target="Yo8ojN2ZZVK_a9DPH7lN-215" edge="1">
          <mxGeometry relative="1" as="geometry" />
        </mxCell>
        <mxCell id="Yo8ojN2ZZVK_a9DPH7lN-212" value="" style="ellipse;whiteSpace=wrap;html=1;aspect=fixed;fillColor=#e1d5e7;strokeColor=#9673a6;dashed=1;" parent="1" vertex="1">
          <mxGeometry x="350" y="393" width="30" height="30" as="geometry" />
        </mxCell>
        <mxCell id="Yo8ojN2ZZVK_a9DPH7lN-215" value="" style="ellipse;whiteSpace=wrap;html=1;aspect=fixed;fillColor=#e1d5e7;strokeColor=#9673a6;dashed=1;" parent="1" vertex="1">
          <mxGeometry x="410" y="393" width="30" height="30" as="geometry" />
        </mxCell>
        <mxCell id="Yo8ojN2ZZVK_a9DPH7lN-223" style="edgeStyle=orthogonalEdgeStyle;rounded=0;orthogonalLoop=1;jettySize=auto;html=1;exitX=1;exitY=0.5;exitDx=0;exitDy=0;entryX=0;entryY=0.5;entryDx=0;entryDy=0;endArrow=none;endFill=0;fillColor=#ffe6cc;strokeColor=#d79b00;" parent="1" source="Yo8ojN2ZZVK_a9DPH7lN-217" target="Yo8ojN2ZZVK_a9DPH7lN-222" edge="1">
          <mxGeometry relative="1" as="geometry" />
        </mxCell>
        <mxCell id="xTJkF1dvW0mvQIqaZgI2-124" style="edgeStyle=orthogonalEdgeStyle;rounded=0;orthogonalLoop=1;jettySize=auto;html=1;exitX=0;exitY=0.5;exitDx=0;exitDy=0;entryX=1;entryY=0.5;entryDx=0;entryDy=0;endArrow=none;endFill=0;fillColor=#ffe6cc;strokeColor=#d79b00;" edge="1" parent="1" source="Yo8ojN2ZZVK_a9DPH7lN-217" target="42">
          <mxGeometry relative="1" as="geometry" />
        </mxCell>
        <mxCell id="Yo8ojN2ZZVK_a9DPH7lN-217" value="" style="ellipse;whiteSpace=wrap;html=1;aspect=fixed;fillColor=#ffe6cc;strokeColor=#d79b00;" parent="1" vertex="1">
          <mxGeometry x="610" y="145" width="30" height="30" as="geometry" />
        </mxCell>
        <mxCell id="Yo8ojN2ZZVK_a9DPH7lN-220" value="" style="endArrow=none;html=1;rounded=0;exitX=1;exitY=0.5;exitDx=0;exitDy=0;fillColor=#dae8fc;strokeColor=#6c8ebf;" parent="1" source="Yo8ojN2ZZVK_a9DPH7lN-182" target="Yo8ojN2ZZVK_a9DPH7lN-219" edge="1">
          <mxGeometry width="50" height="50" relative="1" as="geometry">
            <mxPoint x="310" y="45" as="sourcePoint" />
            <mxPoint x="830" y="45" as="targetPoint" />
          </mxGeometry>
        </mxCell>
        <mxCell id="Yo8ojN2ZZVK_a9DPH7lN-219" value="" style="ellipse;whiteSpace=wrap;html=1;aspect=fixed;fillColor=#dae8fc;strokeColor=#6c8ebf;" parent="1" vertex="1">
          <mxGeometry x="780" y="30" width="30" height="30" as="geometry" />
        </mxCell>
        <mxCell id="Yo8ojN2ZZVK_a9DPH7lN-224" style="edgeStyle=orthogonalEdgeStyle;rounded=0;orthogonalLoop=1;jettySize=auto;html=1;exitX=0.5;exitY=0;exitDx=0;exitDy=0;entryX=0;entryY=0.5;entryDx=0;entryDy=0;curved=1;endArrow=classic;endFill=1;fillColor=#ffe6cc;strokeColor=#d79b00;" parent="1" source="Yo8ojN2ZZVK_a9DPH7lN-222" target="Yo8ojN2ZZVK_a9DPH7lN-219" edge="1">
          <mxGeometry relative="1" as="geometry">
            <Array as="points">
              <mxPoint x="740" y="145" />
              <mxPoint x="740" y="45" />
            </Array>
          </mxGeometry>
        </mxCell>
        <mxCell id="Yo8ojN2ZZVK_a9DPH7lN-227" style="edgeStyle=orthogonalEdgeStyle;rounded=0;orthogonalLoop=1;jettySize=auto;html=1;exitX=1;exitY=0.5;exitDx=0;exitDy=0;entryX=0;entryY=0.5;entryDx=0;entryDy=0;curved=1;fillColor=#ffe6cc;strokeColor=#d79b00;endArrow=classic;endFill=1;" parent="1" source="Yo8ojN2ZZVK_a9DPH7lN-222" target="Yo8ojN2ZZVK_a9DPH7lN-225" edge="1">
          <mxGeometry relative="1" as="geometry" />
        </mxCell>
        <mxCell id="xTJkF1dvW0mvQIqaZgI2-104" style="edgeStyle=orthogonalEdgeStyle;rounded=0;orthogonalLoop=1;jettySize=auto;html=1;exitX=1;exitY=0.5;exitDx=0;exitDy=0;entryX=0;entryY=0.5;entryDx=0;entryDy=0;endArrow=none;endFill=0;fillColor=#ffe6cc;strokeColor=#d79b00;" edge="1" parent="1" source="Yo8ojN2ZZVK_a9DPH7lN-222">
          <mxGeometry relative="1" as="geometry">
            <mxPoint x="770" y="160" as="targetPoint" />
          </mxGeometry>
        </mxCell>
        <mxCell id="Yo8ojN2ZZVK_a9DPH7lN-222" value="" style="ellipse;whiteSpace=wrap;html=1;aspect=fixed;fillColor=#ffe6cc;strokeColor=#d79b00;" parent="1" vertex="1">
          <mxGeometry x="670" y="145" width="30" height="30" as="geometry" />
        </mxCell>
        <mxCell id="Yo8ojN2ZZVK_a9DPH7lN-226" value="" style="endArrow=none;html=1;rounded=0;exitX=1;exitY=0.5;exitDx=0;exitDy=0;" parent="1" source="Yo8ojN2ZZVK_a9DPH7lN-206" target="Yo8ojN2ZZVK_a9DPH7lN-225" edge="1">
          <mxGeometry width="50" height="50" relative="1" as="geometry">
            <mxPoint x="550" y="288" as="sourcePoint" />
            <mxPoint x="1020" y="288" as="targetPoint" />
          </mxGeometry>
        </mxCell>
        <mxCell id="Yo8ojN2ZZVK_a9DPH7lN-225" value="" style="ellipse;whiteSpace=wrap;html=1;aspect=fixed;" parent="1" vertex="1">
          <mxGeometry x="810" y="273" width="30" height="30" as="geometry" />
        </mxCell>
        <mxCell id="Yo8ojN2ZZVK_a9DPH7lN-228" value="v0.1" style="text;html=1;align=center;verticalAlign=middle;resizable=0;points=[];autosize=1;strokeColor=none;fillColor=none;" parent="1" vertex="1">
          <mxGeometry x="140" width="50" height="30" as="geometry" />
        </mxCell>
        <mxCell id="Yo8ojN2ZZVK_a9DPH7lN-229" value="v0.2" style="text;html=1;align=center;verticalAlign=middle;resizable=0;points=[];autosize=1;strokeColor=none;fillColor=none;" parent="1" vertex="1">
          <mxGeometry x="270" width="50" height="30" as="geometry" />
        </mxCell>
        <mxCell id="Yo8ojN2ZZVK_a9DPH7lN-230" value="v1.0" style="text;html=1;align=center;verticalAlign=middle;resizable=0;points=[];autosize=1;strokeColor=none;fillColor=none;" parent="1" vertex="1">
          <mxGeometry x="770" width="50" height="30" as="geometry" />
        </mxCell>
        <mxCell id="YG7WHH2xmlY1mHsEQlLG-102" value="Bugfix" style="text;html=1;strokeColor=#82b366;fillColor=#d5e8d4;align=center;verticalAlign=middle;whiteSpace=wrap;rounded=0;dashed=1;" parent="1" vertex="1">
          <mxGeometry y="214" width="90" height="20" as="geometry" />
        </mxCell>
        <mxCell id="xTJkF1dvW0mvQIqaZgI2-105" style="edgeStyle=orthogonalEdgeStyle;rounded=0;orthogonalLoop=1;jettySize=auto;html=1;entryX=0;entryY=0.5;entryDx=0;entryDy=0;endArrow=none;endFill=0;fillColor=#ffe6cc;strokeColor=#d79b00;" edge="1" parent="1" target="xTJkF1dvW0mvQIqaZgI2-103">
          <mxGeometry relative="1" as="geometry">
            <mxPoint x="770" y="160" as="sourcePoint" />
          </mxGeometry>
        </mxCell>
        <mxCell id="xTJkF1dvW0mvQIqaZgI2-106" style="edgeStyle=orthogonalEdgeStyle;rounded=0;orthogonalLoop=1;jettySize=auto;html=1;exitX=1;exitY=0.5;exitDx=0;exitDy=0;endArrow=none;endFill=0;fillColor=#ffe6cc;strokeColor=#d79b00;" edge="1" parent="1" source="xTJkF1dvW0mvQIqaZgI2-115">
          <mxGeometry relative="1" as="geometry">
            <mxPoint x="1240" y="160" as="targetPoint" />
          </mxGeometry>
        </mxCell>
        <mxCell id="xTJkF1dvW0mvQIqaZgI2-103" value="" style="ellipse;whiteSpace=wrap;html=1;aspect=fixed;fillColor=#ffe6cc;strokeColor=#d79b00;" vertex="1" parent="1">
          <mxGeometry x="920" y="145" width="30" height="30" as="geometry" />
        </mxCell>
        <mxCell id="xTJkF1dvW0mvQIqaZgI2-110" value="" style="edgeStyle=orthogonalEdgeStyle;rounded=0;orthogonalLoop=1;jettySize=auto;html=1;exitX=1;exitY=0.5;exitDx=0;exitDy=0;endArrow=none;endFill=0;fillColor=#ffe6cc;strokeColor=#d79b00;" edge="1" parent="1" source="xTJkF1dvW0mvQIqaZgI2-103" target="xTJkF1dvW0mvQIqaZgI2-109">
          <mxGeometry relative="1" as="geometry">
            <mxPoint x="1240" y="160" as="targetPoint" />
            <mxPoint x="930" y="160" as="sourcePoint" />
          </mxGeometry>
        </mxCell>
        <mxCell id="xTJkF1dvW0mvQIqaZgI2-114" style="edgeStyle=orthogonalEdgeStyle;rounded=0;orthogonalLoop=1;jettySize=auto;html=1;exitX=1;exitY=0.5;exitDx=0;exitDy=0;entryX=0;entryY=0.5;entryDx=0;entryDy=0;curved=1;fillColor=#ffe6cc;strokeColor=#d79b00;" edge="1" parent="1" source="xTJkF1dvW0mvQIqaZgI2-109" target="xTJkF1dvW0mvQIqaZgI2-111">
          <mxGeometry relative="1" as="geometry" />
        </mxCell>
        <mxCell id="xTJkF1dvW0mvQIqaZgI2-109" value="" style="ellipse;whiteSpace=wrap;html=1;aspect=fixed;fillColor=#ffe6cc;strokeColor=#d79b00;" vertex="1" parent="1">
          <mxGeometry x="980" y="145" width="30" height="30" as="geometry" />
        </mxCell>
        <mxCell id="xTJkF1dvW0mvQIqaZgI2-117" style="edgeStyle=orthogonalEdgeStyle;rounded=0;orthogonalLoop=1;jettySize=auto;html=1;exitX=1;exitY=0.5;exitDx=0;exitDy=0;entryX=0;entryY=0.5;entryDx=0;entryDy=0;curved=1;fillColor=#d5e8d4;strokeColor=#82b366;" edge="1" parent="1" source="xTJkF1dvW0mvQIqaZgI2-111" target="xTJkF1dvW0mvQIqaZgI2-115">
          <mxGeometry relative="1" as="geometry" />
        </mxCell>
        <mxCell id="xTJkF1dvW0mvQIqaZgI2-120" style="edgeStyle=orthogonalEdgeStyle;rounded=0;orthogonalLoop=1;jettySize=auto;html=1;exitX=1;exitY=0.5;exitDx=0;exitDy=0;entryX=0;entryY=0.5;entryDx=0;entryDy=0;curved=1;fillColor=#d5e8d4;strokeColor=#82b366;" edge="1" parent="1" source="xTJkF1dvW0mvQIqaZgI2-111" target="xTJkF1dvW0mvQIqaZgI2-118">
          <mxGeometry relative="1" as="geometry" />
        </mxCell>
        <mxCell id="xTJkF1dvW0mvQIqaZgI2-111" value="" style="ellipse;whiteSpace=wrap;html=1;aspect=fixed;fillColor=#f8cecc;strokeColor=#b85450;dashed=1;" vertex="1" parent="1">
          <mxGeometry x="1060" y="209" width="30" height="30" as="geometry" />
        </mxCell>
        <mxCell id="xTJkF1dvW0mvQIqaZgI2-116" value="" style="edgeStyle=orthogonalEdgeStyle;rounded=0;orthogonalLoop=1;jettySize=auto;html=1;exitX=1;exitY=0.5;exitDx=0;exitDy=0;endArrow=none;endFill=0;fillColor=#ffe6cc;strokeColor=#d79b00;" edge="1" parent="1" source="xTJkF1dvW0mvQIqaZgI2-109" target="xTJkF1dvW0mvQIqaZgI2-115">
          <mxGeometry relative="1" as="geometry">
            <mxPoint x="1240" y="160" as="targetPoint" />
            <mxPoint x="1010" y="160" as="sourcePoint" />
          </mxGeometry>
        </mxCell>
        <mxCell id="xTJkF1dvW0mvQIqaZgI2-123" style="edgeStyle=orthogonalEdgeStyle;rounded=0;orthogonalLoop=1;jettySize=auto;html=1;exitX=1;exitY=0.5;exitDx=0;exitDy=0;entryX=0;entryY=0.5;entryDx=0;entryDy=0;curved=1;fillColor=#ffe6cc;strokeColor=#d79b00;" edge="1" parent="1" source="xTJkF1dvW0mvQIqaZgI2-115" target="xTJkF1dvW0mvQIqaZgI2-121">
          <mxGeometry relative="1" as="geometry" />
        </mxCell>
        <mxCell id="xTJkF1dvW0mvQIqaZgI2-115" value="" style="ellipse;whiteSpace=wrap;html=1;aspect=fixed;fillColor=#ffe6cc;strokeColor=#d79b00;" vertex="1" parent="1">
          <mxGeometry x="1130" y="145" width="30" height="30" as="geometry" />
        </mxCell>
        <mxCell id="xTJkF1dvW0mvQIqaZgI2-119" value="" style="endArrow=none;html=1;rounded=0;exitX=1;exitY=0.5;exitDx=0;exitDy=0;" edge="1" parent="1" source="xTJkF1dvW0mvQIqaZgI2-126" target="xTJkF1dvW0mvQIqaZgI2-118">
          <mxGeometry width="50" height="50" relative="1" as="geometry">
            <mxPoint x="840" y="288" as="sourcePoint" />
            <mxPoint x="1240" y="288" as="targetPoint" />
            <Array as="points">
              <mxPoint x="880" y="288" />
            </Array>
          </mxGeometry>
        </mxCell>
        <mxCell id="xTJkF1dvW0mvQIqaZgI2-118" value="" style="ellipse;whiteSpace=wrap;html=1;aspect=fixed;" vertex="1" parent="1">
          <mxGeometry x="1170" y="273" width="30" height="30" as="geometry" />
        </mxCell>
        <mxCell id="xTJkF1dvW0mvQIqaZgI2-122" value="" style="endArrow=none;html=1;rounded=0;exitX=1;exitY=0.5;exitDx=0;exitDy=0;fillColor=#dae8fc;strokeColor=#6c8ebf;" edge="1" parent="1" source="Yo8ojN2ZZVK_a9DPH7lN-219" target="xTJkF1dvW0mvQIqaZgI2-121">
          <mxGeometry width="50" height="50" relative="1" as="geometry">
            <mxPoint x="810" y="45" as="sourcePoint" />
            <mxPoint x="1240" y="45" as="targetPoint" />
          </mxGeometry>
        </mxCell>
        <mxCell id="xTJkF1dvW0mvQIqaZgI2-121" value="" style="ellipse;whiteSpace=wrap;html=1;aspect=fixed;fillColor=#dae8fc;strokeColor=#6c8ebf;" vertex="1" parent="1">
          <mxGeometry x="1200" y="30" width="30" height="30" as="geometry" />
        </mxCell>
        <mxCell id="xTJkF1dvW0mvQIqaZgI2-127" value="" style="endArrow=none;html=1;rounded=0;exitX=1;exitY=0.5;exitDx=0;exitDy=0;" edge="1" parent="1" source="Yo8ojN2ZZVK_a9DPH7lN-225" target="xTJkF1dvW0mvQIqaZgI2-126">
          <mxGeometry width="50" height="50" relative="1" as="geometry">
            <mxPoint x="840" y="288" as="sourcePoint" />
            <mxPoint x="1170" y="288" as="targetPoint" />
            <Array as="points" />
          </mxGeometry>
        </mxCell>
        <mxCell id="xTJkF1dvW0mvQIqaZgI2-128" style="edgeStyle=orthogonalEdgeStyle;rounded=0;orthogonalLoop=1;jettySize=auto;html=1;exitX=1;exitY=0.5;exitDx=0;exitDy=0;entryX=0;entryY=0.5;entryDx=0;entryDy=0;curved=1;" edge="1" parent="1" source="xTJkF1dvW0mvQIqaZgI2-126" target="xTJkF1dvW0mvQIqaZgI2-103">
          <mxGeometry relative="1" as="geometry" />
        </mxCell>
        <mxCell id="xTJkF1dvW0mvQIqaZgI2-126" value="" style="ellipse;whiteSpace=wrap;html=1;aspect=fixed;" vertex="1" parent="1">
          <mxGeometry x="850" y="273" width="30" height="30" as="geometry" />
        </mxCell>
      </root>
    </mxGraphModel>
  </diagram>
</mxfile>
